<mxfile host="app.diagrams.net" modified="2022-10-20T06:29:11.254Z" agent="5.0 (Macintosh; Intel Mac OS X 10_15_7) AppleWebKit/537.36 (KHTML, like Gecko) Chrome/106.0.0.0 Safari/537.36" etag="kZ9lHexhd55-80IMqWhp" version="20.4.2" type="github">
  <diagram id="vcc9dT3QRfYNF34iMw_Z" name="Page-1">
    <mxGraphModel dx="946" dy="614" grid="1" gridSize="10" guides="1" tooltips="1" connect="1" arrows="1" fold="1" page="1" pageScale="1" pageWidth="827" pageHeight="1169" math="0" shadow="0">
      <root>
        <mxCell id="0" />
        <mxCell id="1" parent="0" />
        <mxCell id="qYAU29RfQ3GgaS_m2Czl-5" value="" style="ellipse;html=1;shape=startState;fillColor=#000000;strokeColor=#ff0000;" vertex="1" parent="1">
          <mxGeometry x="90" y="140" width="30" height="30" as="geometry" />
        </mxCell>
        <mxCell id="qYAU29RfQ3GgaS_m2Czl-6" value="" style="edgeStyle=orthogonalEdgeStyle;html=1;verticalAlign=bottom;endArrow=open;endSize=8;strokeColor=#ff0000;rounded=0;entryX=0.5;entryY=0;entryDx=0;entryDy=0;" edge="1" source="qYAU29RfQ3GgaS_m2Czl-5" parent="1" target="qYAU29RfQ3GgaS_m2Czl-7">
          <mxGeometry relative="1" as="geometry">
            <mxPoint x="105" y="230" as="targetPoint" />
          </mxGeometry>
        </mxCell>
        <mxCell id="qYAU29RfQ3GgaS_m2Czl-7" value="Applying for creation" style="rounded=1;whiteSpace=wrap;html=1;arcSize=40;fontColor=#000000;fillColor=#ffffc0;strokeColor=#ff0000;" vertex="1" parent="1">
          <mxGeometry x="230" y="215" width="140" height="40" as="geometry" />
        </mxCell>
        <mxCell id="qYAU29RfQ3GgaS_m2Czl-16" style="edgeStyle=orthogonalEdgeStyle;rounded=0;orthogonalLoop=1;jettySize=auto;html=1;exitX=0.5;exitY=1;exitDx=0;exitDy=0;strokeColor=#FF0000;" edge="1" parent="1" source="qYAU29RfQ3GgaS_m2Czl-9" target="qYAU29RfQ3GgaS_m2Czl-11">
          <mxGeometry relative="1" as="geometry" />
        </mxCell>
        <mxCell id="qYAU29RfQ3GgaS_m2Czl-9" value="accept" style="rounded=1;whiteSpace=wrap;html=1;arcSize=40;fontColor=#000000;fillColor=#ffffc0;strokeColor=#ff0000;" vertex="1" parent="1">
          <mxGeometry x="620" y="215" width="120" height="40" as="geometry" />
        </mxCell>
        <mxCell id="qYAU29RfQ3GgaS_m2Czl-17" style="edgeStyle=orthogonalEdgeStyle;rounded=0;orthogonalLoop=1;jettySize=auto;html=1;exitX=0;exitY=0.5;exitDx=0;exitDy=0;strokeColor=#FF0000;" edge="1" parent="1" source="qYAU29RfQ3GgaS_m2Czl-11" target="qYAU29RfQ3GgaS_m2Czl-13">
          <mxGeometry relative="1" as="geometry" />
        </mxCell>
        <mxCell id="qYAU29RfQ3GgaS_m2Czl-25" value="CreateDeliverySchedule()[success]" style="edgeLabel;html=1;align=center;verticalAlign=middle;resizable=0;points=[];" vertex="1" connectable="0" parent="qYAU29RfQ3GgaS_m2Czl-17">
          <mxGeometry x="0.0923" y="-1" relative="1" as="geometry">
            <mxPoint y="-9" as="offset" />
          </mxGeometry>
        </mxCell>
        <mxCell id="qYAU29RfQ3GgaS_m2Czl-11" value="create a order" style="rounded=1;whiteSpace=wrap;html=1;arcSize=40;fontColor=#000000;fillColor=#ffffc0;strokeColor=#ff0000;" vertex="1" parent="1">
          <mxGeometry x="620" y="450" width="120" height="40" as="geometry" />
        </mxCell>
        <mxCell id="qYAU29RfQ3GgaS_m2Czl-13" value="create a delivery schedule" style="rounded=1;whiteSpace=wrap;html=1;arcSize=40;fontColor=#000000;fillColor=#ffffc0;strokeColor=#ff0000;" vertex="1" parent="1">
          <mxGeometry x="240" y="450" width="120" height="40" as="geometry" />
        </mxCell>
        <mxCell id="qYAU29RfQ3GgaS_m2Czl-14" value="" style="edgeStyle=orthogonalEdgeStyle;html=1;verticalAlign=bottom;endArrow=open;endSize=8;strokeColor=#ff0000;rounded=0;entryX=0.5;entryY=0;entryDx=0;entryDy=0;" edge="1" source="qYAU29RfQ3GgaS_m2Czl-13" parent="1" target="qYAU29RfQ3GgaS_m2Czl-18">
          <mxGeometry relative="1" as="geometry">
            <mxPoint x="170" y="550" as="targetPoint" />
          </mxGeometry>
        </mxCell>
        <mxCell id="qYAU29RfQ3GgaS_m2Czl-15" value="" style="edgeStyle=orthogonalEdgeStyle;html=1;verticalAlign=bottom;endArrow=open;endSize=8;strokeColor=#FF0000;rounded=0;entryX=0;entryY=0.5;entryDx=0;entryDy=0;exitX=1;exitY=0.5;exitDx=0;exitDy=0;" edge="1" parent="1" source="qYAU29RfQ3GgaS_m2Czl-7" target="qYAU29RfQ3GgaS_m2Czl-9">
          <mxGeometry relative="1" as="geometry">
            <mxPoint x="630" y="335" as="targetPoint" />
            <mxPoint x="450" y="230" as="sourcePoint" />
          </mxGeometry>
        </mxCell>
        <mxCell id="qYAU29RfQ3GgaS_m2Czl-22" value="ValidateCustomer()[validate=true]" style="edgeLabel;html=1;align=center;verticalAlign=middle;resizable=0;points=[];" vertex="1" connectable="0" parent="qYAU29RfQ3GgaS_m2Czl-15">
          <mxGeometry x="0.736" relative="1" as="geometry">
            <mxPoint x="-92" y="20" as="offset" />
          </mxGeometry>
        </mxCell>
        <mxCell id="qYAU29RfQ3GgaS_m2Czl-18" value="" style="ellipse;html=1;shape=endState;fillColor=#000000;strokeColor=#ff0000;" vertex="1" parent="1">
          <mxGeometry x="110" y="560" width="30" height="30" as="geometry" />
        </mxCell>
        <mxCell id="qYAU29RfQ3GgaS_m2Czl-21" value="GetCustomer()[curstomer=true]" style="text;html=1;align=center;verticalAlign=middle;resizable=0;points=[];autosize=1;strokeColor=none;fillColor=none;" vertex="1" parent="1">
          <mxGeometry x="400" y="255" width="190" height="30" as="geometry" />
        </mxCell>
        <mxCell id="qYAU29RfQ3GgaS_m2Czl-24" value="Create()[success]&amp;nbsp;" style="text;html=1;align=center;verticalAlign=middle;resizable=0;points=[];autosize=1;strokeColor=none;fillColor=none;" vertex="1" parent="1">
          <mxGeometry x="585" y="345" width="120" height="30" as="geometry" />
        </mxCell>
        <mxCell id="qYAU29RfQ3GgaS_m2Czl-26" value="EnterDetail()" style="text;html=1;align=center;verticalAlign=middle;resizable=0;points=[];autosize=1;strokeColor=none;fillColor=none;" vertex="1" parent="1">
          <mxGeometry x="600" y="370" width="90" height="30" as="geometry" />
        </mxCell>
        <mxCell id="qYAU29RfQ3GgaS_m2Czl-28" value="startProccessOrder()[]" style="text;html=1;align=center;verticalAlign=middle;resizable=0;points=[];autosize=1;strokeColor=none;fillColor=none;" vertex="1" parent="1">
          <mxGeometry x="565" y="400" width="140" height="30" as="geometry" />
        </mxCell>
      </root>
    </mxGraphModel>
  </diagram>
</mxfile>
